HIERARCHY
ROOT Pelvis
{
	OFFSET 0.000000 0.000000 0.000000
	CHANNELS 6 Xposition Yposition Zposition Xrotation Yrotation Zrotation
	JOINT LeftUpLeg_virtual
	{
		OFFSET 0.000000 0.000000 0.000000
		CHANNELS 3 Xrotation Yrotation Zrotation
		JOINT LeftUpLeg
		{
			OFFSET 18.735201 -5.666702 -4.541200
			CHANNELS 3 Xrotation Yrotation Zrotation
			JOINT LeftLeg
			{
				OFFSET -0.021200 -31.938179 0.493100
				CHANNELS 3 Xrotation Yrotation Zrotation
				JOINT LeftFoot
				{
					OFFSET 0.021200 -31.938179 -4.336299
					CHANNELS 3 Xrotation Yrotation Zrotation
					JOINT LeftToeBase
					{
						OFFSET 0.943001 -26.722000 15.023500
						CHANNELS 3 Xrotation Yrotation Zrotation
						End Site
						{
							OFFSET 0 0 0
						}
					}
				}
			}
		}
	}
	JOINT RightUpLeg_virtual
	{
		OFFSET 0.000000 0.000000 0.000000
		CHANNELS 3 Xrotation Yrotation Zrotation
		JOINT RightUpLeg
		{
			OFFSET -18.735201 -5.666702 -4.541200
			CHANNELS 3 Xrotation Yrotation Zrotation
			JOINT RightLeg
			{
				OFFSET 0.018946 -31.938133 0.493100
				CHANNELS 3 Xrotation Yrotation Zrotation
				JOINT RightFoot
				{
					OFFSET -0.018946 -31.938126 -4.336299
					CHANNELS 3 Xrotation Yrotation Zrotation
					JOINT RightToeBase
					{
						OFFSET -0.943001 -26.722004 15.023500
						CHANNELS 3 Xrotation Yrotation Zrotation
						End Site
						{
							OFFSET 0 0 0
						}
					}
				}
			}
		}
	}
	JOINT Hips_virtual
	{
		OFFSET 0.000000 0.000000 0.000000
		CHANNELS 3 Xrotation Yrotation Zrotation
		JOINT Hips
		{
			OFFSET -0.000000 -0.000000 -0.000000
			CHANNELS 3 Xrotation Yrotation Zrotation
			JOINT Spine
			{
				OFFSET 0.000000 10.199997 -0.299500
				CHANNELS 3 Xrotation Yrotation Zrotation
				JOINT Spine1
				{
					OFFSET 0.000000 11.900002 -1.516600
					CHANNELS 3 Xrotation Yrotation Zrotation
					JOINT Spine2
					{
						OFFSET 0.000000 13.600006 -2.842500
						CHANNELS 3 Xrotation Yrotation Zrotation
						JOINT Neck_virtual
						{
							OFFSET 0.000000 0.000000 0.000000
							CHANNELS 3 Xrotation Yrotation Zrotation
							JOINT Neck
							{
								OFFSET 0.000000 9.624100 -2.890100
								CHANNELS 3 Xrotation Yrotation Zrotation
								JOINT Head
								{
									OFFSET 0.000000 14.068802 -1.351900
									CHANNELS 3 Xrotation Yrotation Zrotation
									End Site
									{
										OFFSET 0 0 0
									}
								}
							}
						}
						JOINT LeftShoulder_virtual
						{
							OFFSET 0.000000 0.000000 0.000000
							CHANNELS 3 Xrotation Yrotation Zrotation
							JOINT LeftShoulder
							{
								OFFSET 15.263000 10.923401 -0.547700
								CHANNELS 3 Xrotation Yrotation Zrotation
								JOINT LeftArm
								{
									OFFSET 25.438599 -2.830597 -13.032500
									CHANNELS 3 Xrotation Yrotation Zrotation
									JOINT LeftForeArm
									{
										OFFSET 29.960503 0.000000 0.000000
										CHANNELS 3 Xrotation Yrotation Zrotation
										JOINT LeftHand
										{
											OFFSET 27.849251 0.000000 0.000000
											CHANNELS 3 Xrotation Yrotation Zrotation
											End Site
											{
												OFFSET 0 0 0
											}
										}
									}
								}
							}
						}
						JOINT RightShoulder_virtual
						{
							OFFSET 0.000000 0.000000 0.000000
							CHANNELS 3 Xrotation Yrotation Zrotation
							JOINT RightShoulder
							{
								OFFSET -15.263000 10.923401 -0.547700
								CHANNELS 3 Xrotation Yrotation Zrotation
								JOINT RightArm
								{
									OFFSET -25.438599 -2.830597 -13.032500
									CHANNELS 3 Xrotation Yrotation Zrotation
									JOINT RightForeArm
									{
										OFFSET -29.960503 0.000000 0.000000
										CHANNELS 3 Xrotation Yrotation Zrotation
										JOINT RightHand
										{
											OFFSET -27.849251 0.000000 0.000000
											CHANNELS 3 Xrotation Yrotation Zrotation
											End Site
											{
												OFFSET 0 0 0
											}
										}
									}
								}
							}
						}
					}
				}
			}
		}
	}
}
MOTION
Frames: 10
Frame Time: 0.03333333
2.470746 92.543579 0.136553 0.000000 0.000000 0.000000 12.813616 -21.139164 0.656461 -23.461891 6.890650 13.443379 31.797474 3.293029 -3.271692 -15.738229 5.068391 -8.158708 0.000000 0.000000 0.000000 8.998398 1.296174 0.050818 -17.437738 -5.152643 -14.304283 26.090161 -3.068287 1.004437 -20.989404 -7.985488 10.713810 0.000000 0.000000 0.000000 0.488415 -1.575083 0.080691 3.908899 3.804681 -1.042937 5.904698 -0.693938 0.341724 1.565529 0.093107 0.368176 0.000000 0.000000 0.000000 2.527551 -0.162456 0.072995 -0.940513 0.011752 0.004679 0.000000 0.000000 0.000000 2.401745 1.401699 -0.941809 1.455081 0.473832 -11.452618 3.869161 -2.681835 -53.280318 4.151152 -32.972882 -3.065857 0.000000 0.000000 0.000000 3.377211 -1.438421 1.117168 2.038498 -0.619577 11.591411 4.331157 3.981106 51.934925 3.288465 46.654615 3.064170 0.000000 0.000000 0.000000 
2.573974 92.519890 0.139975 0.000000 0.000000 0.000000 12.882610 -21.185324 0.689286 -23.374728 6.885116 13.457814 31.757651 3.229000 -3.293531 -15.758368 5.020862 -8.239378 0.000000 0.000000 0.000000 9.039873 1.515568 0.015672 -17.381945 -5.094585 -14.313521 26.067292 -3.102495 1.051422 -21.016994 -8.043320 10.761135 0.000000 0.000000 0.000000 0.515258 -1.578478 0.087465 4.033686 3.963398 -1.081500 5.878843 -0.750024 0.282983 1.535255 0.086075 0.358289 0.000000 0.000000 0.000000 2.534469 -0.175627 0.054168 -0.951080 0.008593 0.001983 0.000000 0.000000 0.000000 2.364645 1.386834 -0.962864 1.439711 0.505970 -11.539025 3.815058 -2.678771 -53.286909 4.141978 -33.133306 -3.026779 0.000000 0.000000 0.000000 3.362949 -1.434380 1.103977 2.055445 -0.708315 11.668540 4.227733 3.781692 52.005077 3.145749 46.667903 3.174002 0.000000 0.000000 0.000000 
2.775408 92.476425 0.142774 0.000000 0.000000 0.000000 13.001606 -21.249400 0.746205 -23.229183 6.879743 13.488003 31.708668 3.103263 -3.329112 -15.775982 4.922792 -8.385150 0.000000 0.000000 0.000000 9.118755 1.928063 -0.059593 -17.277076 -4.983940 -14.340440 26.030944 -3.156391 1.139468 -21.062777 -8.141028 10.856008 0.000000 0.000000 0.000000 0.564604 -1.595432 0.106843 4.245360 4.276458 -1.137619 5.827330 -0.847252 0.176021 1.482033 0.071326 0.338740 0.000000 0.000000 0.000000 2.546234 -0.197079 0.020131 -0.970942 0.002321 -0.002953 0.000000 0.000000 0.000000 2.297758 1.358345 -1.000170 1.411891 0.563812 -11.688955 3.727320 -2.666925 -53.293664 4.119117 -33.451657 -2.957597 0.000000 0.000000 0.000000 3.337458 -1.426091 1.080517 2.081433 -0.874333 11.808544 4.021333 3.406101 52.137593 2.880804 46.676123 3.380683 0.000000 0.000000 0.000000 
3.063697 92.419945 0.139370 0.000000 0.000000 0.000000 13.140131 -21.288228 0.811858 -23.070338 6.883470 13.533946 31.696251 2.921368 -3.364613 -15.757993 4.770748 -8.568810 0.000000 0.000000 0.000000 9.227551 2.485490 -0.181790 -17.135077 -4.831155 -14.398054 25.997238 -3.206955 1.258153 -21.110595 -8.249643 10.997236 0.000000 0.000000 0.000000 0.630005 -1.639075 0.147541 4.483272 4.731068 -1.180686 5.753050 -0.961577 0.038299 1.416902 0.047945 0.310518 0.000000 0.000000 0.000000 2.559528 -0.219203 -0.023294 -0.997909 -0.006999 -0.009442 0.000000 0.000000 0.000000 2.212508 1.318358 -1.045595 1.376544 0.634895 -11.867098 3.633950 -2.636612 -53.292893 4.074256 -33.920243 -2.873795 0.000000 0.000000 0.000000 3.306153 -1.413097 1.051421 2.104682 -1.097324 11.987961 3.717788 2.897878 52.317938 2.530326 46.654929 3.659209 0.000000 0.000000 0.000000 
3.420624 92.358429 0.126412 0.000000 0.000000 0.000000 13.267735 -21.262570 0.868194 -22.941268 6.904917 13.591381 31.759232 2.693189 -3.384402 -15.677834 4.564659 -8.757881 0.000000 0.000000 0.000000 9.357255 3.127352 -0.355002 -16.969313 -4.650280 -14.497864 25.985414 -3.231655 1.395016 -21.141225 -8.339649 11.180395 0.000000 0.000000 0.000000 0.705769 -1.715102 0.216688 4.687111 5.302117 -1.186762 5.664588 -1.068580 -0.111339 1.349846 0.015583 0.275902 0.000000 0.000000 0.000000 2.570988 -0.234828 -0.070050 -1.029438 -0.019221 -0.016879 0.000000 0.000000 0.000000 2.120285 1.269337 -1.089971 1.339130 0.702383 -12.040424 3.552540 -2.578240 -53.281729 3.996641 -34.522990 -2.793390 0.000000 0.000000 0.000000 3.275798 -1.394730 1.021461 2.115348 -1.351829 12.181730 3.334405 2.315184 52.526740 2.139758 46.590448 3.975329 0.000000 0.000000 0.000000 
3.823439 92.299255 0.106189 0.000000 0.000000 0.000000 13.364324 -21.152047 0.899219 -22.867844 6.949458 13.651027 31.913041 2.433228 -3.375158 -15.527656 4.310819 -8.921426 0.000000 0.000000 0.000000 9.500588 3.794313 -0.576742 -16.788830 -4.456595 -14.643961 26.014864 -3.216140 1.538375 -21.135518 -8.390157 11.397505 0.000000 0.000000 0.000000 0.788022 -1.814225 0.315847 4.816992 5.952367 -1.150189 5.577007 -1.151001 -0.257828 1.286814 -0.024829 0.238409 0.000000 0.000000 0.000000 2.578115 -0.239784 -0.115314 -1.063173 -0.033915 -0.024958 0.000000 0.000000 0.000000 2.029976 1.213567 -1.125314 1.304220 0.748198 -12.189173 3.477902 -2.488446 -53.264995 3.875453 -35.234562 -2.732835 0.000000 0.000000 0.000000 3.253286 -1.370397 0.994572 2.110170 -1.610677 12.370469 2.902240 1.722504 52.742471 1.754599 46.489249 4.290736 0.000000 0.000000 0.000000 
4.249953 92.247726 0.087793 0.000000 0.000000 0.000000 13.425560 -20.961022 0.894983 -22.852302 7.017926 13.700659 32.146449 2.159463 -3.329044 -15.320034 4.022584 -9.035636 0.000000 0.000000 0.000000 9.654981 4.441432 -0.836780 -16.593733 -4.263764 -14.830052 26.102779 -3.157704 1.679611 -21.076784 -8.393483 11.638487 0.000000 0.000000 0.000000 0.873088 -1.913467 0.439333 4.862224 6.639264 -1.084126 5.508921 -1.202099 -0.392659 1.229764 -0.070983 0.202017 0.000000 0.000000 0.000000 2.579649 -0.233777 -0.155927 -1.097179 -0.050116 -0.033636 0.000000 0.000000 0.000000 1.947878 1.152944 -1.146217 1.274603 0.756916 -12.309166 3.382575 -2.375422 -53.253254 3.702996 -36.021905 -2.704034 0.000000 0.000000 0.000000 3.244419 -1.340078 0.973727 2.093598 -1.848075 12.544502 2.461621 1.180264 52.943976 1.412866 46.374935 4.569365 0.000000 0.000000 0.000000 
4.683893 92.206047 0.085529 0.000000 0.000000 0.000000 13.462021 -20.715267 0.853391 -22.876230 7.106917 13.728609 32.430725 1.890955 -3.245148 -15.080115 3.718524 -9.087118 0.000000 0.000000 0.000000 9.823312 5.045562 -1.118961 -16.375095 -4.081635 -15.040655 26.262132 -3.064075 1.814064 -20.952698 -8.354406 11.893212 0.000000 0.000000 0.000000 0.954798 -1.986835 0.575351 4.837068 7.324780 -1.011012 5.476835 -1.224401 -0.513576 1.178743 -0.119991 0.170102 0.000000 0.000000 0.000000 2.575476 -0.219529 -0.189977 -1.129812 -0.066282 -0.042850 0.000000 0.000000 0.000000 1.878782 1.089130 -1.150235 1.251012 0.718769 -12.406238 3.229122 -2.259969 -53.258554 3.477960 -36.847156 -2.713104 0.000000 0.000000 0.000000 3.252670 -1.304814 0.961233 2.075166 -2.042637 12.703836 2.052351 0.734332 53.111544 1.140551 46.273896 4.782591 0.000000 0.000000 0.000000 
5.117198 92.173279 0.115060 0.000000 0.000000 0.000000 13.493268 -20.452578 0.779361 -22.909754 7.210131 13.726752 32.734173 1.644955 -3.128959 -14.834066 3.418873 -9.073572 0.000000 0.000000 0.000000 10.011264 5.603711 -1.404885 -16.120916 -3.915514 -15.255800 26.500260 -2.949296 1.940247 -20.756532 -8.285705 12.152485 0.000000 0.000000 0.000000 1.023726 -2.019958 0.709181 4.768923 7.982241 -0.949570 5.489647 -1.225737 -0.621919 1.133794 -0.169597 0.144578 0.000000 0.000000 0.000000 2.566320 -0.201106 -0.216177 -1.159461 -0.080632 -0.052175 0.000000 0.000000 0.000000 1.826494 1.023883 -1.137526 1.232289 0.631217 -12.487652 2.986542 -2.170031 -53.291089 3.207082 -37.670262 -2.760748 0.000000 0.000000 0.000000 3.278368 -1.266885 0.958802 2.064642 -2.180155 12.854800 1.703783 0.408296 53.226404 0.950670 46.199338 4.911751 0.000000 0.000000 0.000000 
5.548293 92.146255 0.189199 0.000000 0.000000 0.000000 13.539670 -20.210530 0.682050 -22.922427 7.320178 13.691822 33.033428 1.434582 -2.990175 -14.600393 3.141754 -9.001720 0.000000 0.000000 0.000000 10.222607 6.124315 -1.677671 -15.824877 -3.766956 -15.456788 26.819375 -2.829090 2.057805 -20.486847 -8.202530 12.407310 0.000000 0.000000 0.000000 1.070316 -2.018973 0.827093 4.685480 8.595562 -0.905798 5.546394 -1.215066 -0.719587 1.095667 -0.219060 0.125594 0.000000 0.000000 0.000000 2.553600 -0.182545 -0.233573 -1.184420 -0.091816 -0.060690 0.000000 0.000000 0.000000 1.793303 0.959300 -1.110131 1.215954 0.499152 -12.555860 2.642143 -2.130878 -53.357410 2.904064 -38.451332 -2.843622 0.000000 0.000000 0.000000 3.318686 -1.229553 0.967291 2.067596 -2.255079 13.004964 1.429624 0.201482 53.269783 0.844990 46.143105 4.948069 0.000000 0.000000 0.000000 
